<?xml version="1.0" encoding="UTF-8"?>
<svg id="Layer_1" xmlns="http://www.w3.org/2000/svg" version="1.1" viewBox="0 0 810.49 433.71">
  <!-- Generator: Adobe Illustrator 30.2.1, SVG Export Plug-In . SVG Version: 2.1.1 Build 1)  -->
  <defs>
    <style>
      .st0 {
        fill: #63954a;
      }

      .st1 {
        fill: #f8a73f;
      }

      .st2 {
        fill: #0381dc;
      }

      .st3 {
        fill: #e53236;
      }

      .st4 {
        fill: none;
        stroke: blue;
        stroke-miterlimit: 10;
        stroke-width: .72px;
      }

      .st5 {
        fill: #f68631;
      }

      .st6 {
        fill: #0380e0;
      }
    </style>
  </defs>
  <g>
    <g>
      <path class="st1" d="M364.13,114.94c0,5.3-4.3,9.6-9.6,9.6s-9.6-4.3-9.6-9.6,4.3-9.6,9.6-9.6,9.6,4.3,9.6,9.6Z"/>
      <path class="st1" d="M354.25,104.21l.28-13.83.28,13.83c0,.16-.12.28-.28.29-.16,0-.28-.12-.29-.28h0Z"/>
      <path class="st1" d="M353.31,104.28l-.92-13.81,1.49,13.76c.02.16-.1.29-.25.31-.16.02-.29-.1-.31-.25,0,0,0,0,0-.01Z"/>
      <path class="st1" d="M352.39,104.43l-2.12-13.67,2.68,13.57c.03.15-.07.3-.22.33-.15.03-.3-.07-.33-.22,0,0,0,0,0-.01Z"/>
      <path class="st1" d="M351.48,104.65l-3.31-13.44,3.85,13.29c.04.15-.04.31-.19.35-.15.04-.31-.04-.35-.19,0,0,0,0,0-.01Z"/>
      <path class="st1" d="M350.59,104.96l-4.47-13.1,5,12.9c.06.15-.02.31-.16.37-.15.06-.31-.02-.36-.16,0,0,0,0,0-.01Z"/>
      <path class="st1" d="M349.74,105.34l-5.59-12.66,6.1,12.42c.07.14.01.31-.13.38-.14.07-.31.01-.38-.13,0,0,0,0,0-.01Z"/>
      <path class="st1" d="M348.92,105.79l-6.67-12.12,7.16,11.84c.08.13.04.31-.1.39-.13.08-.31.04-.39-.1,0,0,0,0,0,0Z"/>
      <path class="st1" d="M348.14,106.32l-7.7-11.49,8.17,11.17c.09.13.06.3-.06.39-.13.09-.3.06-.39-.06,0,0,0,0,0,0Z"/>
      <path class="st1" d="M347.42,106.91l-8.68-10.78,9.11,10.42c.1.12.09.3-.03.4-.12.1-.3.09-.4-.03,0,0,0,0,0,0Z"/>
      <path class="st1" d="M346.74,107.56l-9.58-9.98,9.98,9.58c.11.11.12.29,0,.4-.11.11-.29.12-.4,0,0,0,0,0,0,0Z"/>
      <path class="st1" d="M346.13,108.26l-10.42-9.11,10.78,8.68c.12.1.14.28.04.4-.1.12-.28.14-.4.04,0,0,0,0,0,0Z"/>
      <path class="st1" d="M345.58,109.02l-11.17-8.17,11.49,7.7c.13.09.16.26.08.39-.09.13-.26.16-.39.08,0,0,0,0,0,0Z"/>
      <path class="st1" d="M345.1,109.82l-11.84-7.16,12.12,6.67c.14.08.19.25.11.38-.08.14-.25.19-.38.11,0,0,0,0,0,0Z"/>
      <path class="st1" d="M344.69,110.67l-12.42-6.1,12.66,5.59c.14.06.21.23.14.37-.06.14-.23.21-.37.14,0,0,0,0-.01,0Z"/>
      <path class="st1" d="M344.35,111.54l-12.9-5,13.1,4.47c.15.05.23.21.18.36-.05.15-.21.23-.36.18,0,0,0,0-.01,0Z"/>
      <path class="st1" d="M344.09,112.44l-13.29-3.85,13.44,3.31c.15.04.24.19.21.34-.04.15-.19.24-.34.21,0,0,0,0-.01,0Z"/>
      <path class="st1" d="M343.91,113.36l-13.57-2.68,13.67,2.12c.15.02.26.17.24.32-.02.15-.17.26-.32.24,0,0,0,0-.01,0Z"/>
      <path class="st1" d="M343.82,114.29l-13.76-1.49,13.81.92c.16.01.27.15.26.3-.01.16-.14.27-.3.26,0,0,0,0-.01,0Z"/>
      <path class="st1" d="M343.8,115.23l-13.83-.28,13.83-.28c.16,0,.28.12.29.28,0,.16-.12.28-.28.29h-.01Z"/>
      <path class="st1" d="M343.87,116.16l-13.8.92,13.76-1.49c.15-.02.29.1.31.25.02.15-.1.29-.25.31,0,0,0,0-.01,0Z"/>
      <path class="st1" d="M344.01,117.08l-13.67,2.12,13.57-2.68c.15-.03.3.07.33.22.03.15-.07.3-.22.33,0,0,0,0-.01,0Z"/>
      <path class="st1" d="M344.24,117.99l-13.44,3.31,13.29-3.85c.15-.04.31.04.35.19.04.15-.04.31-.19.35,0,0,0,0-.01,0Z"/>
      <path class="st1" d="M344.54,118.88l-13.1,4.47,12.9-5c.15-.06.31.02.36.16.06.15-.02.31-.16.37,0,0,0,0-.01,0Z"/>
      <path class="st1" d="M344.93,119.73l-12.66,5.59,12.42-6.1c.14-.07.31-.01.38.13.07.14.01.31-.13.38,0,0,0,0-.01,0Z"/>
      <path class="st1" d="M345.38,120.55l-12.12,6.67,11.84-7.16c.13-.08.31-.04.39.1.08.13.04.31-.1.39,0,0,0,0,0,0Z"/>
      <path class="st1" d="M345.9,121.33l-11.49,7.7,11.17-8.17c.13-.09.3-.06.39.06.09.13.06.3-.06.39,0,0,0,0,0,0Z"/>
      <path class="st1" d="M346.49,122.06l-10.78,8.68,10.42-9.11c.12-.1.3-.09.4.03.1.12.09.3-.03.4,0,0,0,0,0,0Z"/>
      <path class="st1" d="M347.14,122.73l-9.98,9.58,9.58-9.98c.11-.11.29-.12.4,0,.11.11.12.29,0,.4,0,0,0,0,0,0Z"/>
      <path class="st1" d="M347.85,123.34l-9.11,10.42,8.68-10.78c.1-.12.28-.14.4-.04.12.1.14.28.04.4,0,0,0,0,0,0Z"/>
      <path class="st1" d="M348.61,123.89l-8.17,11.17,7.7-11.49c.09-.13.26-.16.39-.08.13.09.16.26.08.39,0,0,0,0,0,0Z"/>
      <path class="st1" d="M349.41,124.37l-7.16,11.84,6.67-12.12c.08-.14.25-.19.38-.11.14.08.19.25.11.38,0,0,0,0,0,0Z"/>
      <path class="st1" d="M350.25,124.79l-6.1,12.42,5.59-12.66c.06-.14.23-.21.37-.14.14.06.21.23.14.37,0,0,0,0,0,.01Z"/>
      <path class="st1" d="M351.12,125.12l-5,12.9,4.47-13.1c.05-.15.21-.23.36-.18.15.05.23.21.18.36,0,0,0,0,0,.01Z"/>
      <path class="st1" d="M352.03,125.38l-3.85,13.29,3.31-13.43c.04-.15.19-.24.34-.21.15.04.24.19.21.34,0,0,0,0,0,.01Z"/>
      <path class="st1" d="M352.94,125.56l-2.68,13.57,2.12-13.67c.02-.15.17-.26.32-.24.15.02.26.17.24.32,0,0,0,0,0,.01Z"/>
      <path class="st1" d="M353.88,125.65l-1.49,13.76.92-13.8c.01-.16.15-.27.3-.26.16.01.27.15.26.3,0,0,0,0,0,.01Z"/>
      <path class="st1" d="M354.81,125.67l-.28,13.83-.28-13.83c0-.16.12-.28.28-.29.16,0,.28.12.29.28h0Z"/>
      <path class="st1" d="M355.74,125.61l.93,13.8-1.49-13.76c-.02-.16.1-.29.25-.31.16-.02.29.1.31.25,0,0,0,0,0,.01Z"/>
      <path class="st1" d="M356.67,125.46l2.12,13.67-2.68-13.57c-.03-.15.07-.3.22-.33.15-.03.3.07.33.22,0,0,0,0,0,.01Z"/>
      <path class="st1" d="M357.58,125.23l3.31,13.43-3.85-13.29c-.04-.15.04-.31.19-.35.15-.04.31.04.35.19,0,0,0,0,0,.01Z"/>
      <path class="st1" d="M358.46,124.93l4.47,13.1-5-12.9c-.06-.15.02-.31.16-.37.15-.06.31.02.37.16,0,0,0,0,0,.01Z"/>
      <path class="st1" d="M359.32,124.55l5.59,12.66-6.1-12.42c-.07-.14-.01-.31.13-.38.14-.07.31-.01.38.13,0,0,0,0,0,.01Z"/>
      <path class="st1" d="M360.14,124.09l6.67,12.12-7.16-11.84c-.08-.13-.04-.31.1-.39.13-.08.31-.04.39.1,0,0,0,0,0,0Z"/>
      <path class="st1" d="M360.91,123.57l7.7,11.49-8.17-11.17c-.09-.13-.06-.3.06-.39.13-.09.3-.06.39.06,0,0,0,0,0,0Z"/>
      <path class="st1" d="M361.64,122.98l8.68,10.78-9.11-10.41c-.1-.12-.09-.3.03-.4.12-.1.3-.09.4.03,0,0,0,0,0,0Z"/>
      <path class="st1" d="M362.31,122.33l9.58,9.98-9.98-9.58c-.11-.11-.12-.29,0-.4s.29-.12.4,0c0,0,0,0,0,0Z"/>
      <path class="st1" d="M362.93,121.62l10.42,9.11-10.78-8.67c-.12-.1-.14-.28-.04-.4.1-.12.28-.14.4-.04,0,0,0,0,0,0Z"/>
      <path class="st1" d="M363.48,120.86l11.17,8.17-11.49-7.7c-.13-.09-.16-.26-.08-.39.09-.13.26-.16.39-.08,0,0,0,0,0,0Z"/>
      <path class="st1" d="M363.96,120.06l11.84,7.16-12.12-6.67c-.14-.08-.19-.25-.11-.38.08-.14.25-.19.38-.11,0,0,0,0,.01,0Z"/>
      <path class="st1" d="M364.37,119.22l12.42,6.1-12.66-5.59c-.14-.06-.21-.23-.14-.37.06-.14.23-.21.37-.14,0,0,0,0,.01,0Z"/>
      <path class="st1" d="M364.71,118.35l12.9,5-13.1-4.47c-.15-.05-.23-.21-.18-.36.05-.15.21-.23.36-.18,0,0,0,0,.01,0Z"/>
      <path class="st1" d="M364.96,117.45l13.29,3.85-13.43-3.31c-.15-.04-.24-.19-.21-.34.04-.15.19-.24.34-.21,0,0,0,0,.01,0Z"/>
      <path class="st1" d="M365.14,116.53l13.57,2.68-13.67-2.12c-.15-.02-.26-.17-.24-.32.02-.15.17-.26.32-.24,0,0,0,0,.01,0Z"/>
      <path class="st1" d="M365.24,115.6l13.76,1.49-13.8-.92c-.16-.01-.27-.14-.26-.3.01-.16.15-.27.3-.26,0,0,0,0,.01,0Z"/>
      <path class="st1" d="M365.26,114.66l13.83.28-13.83.28c-.16,0-.28-.12-.29-.28,0-.16.12-.28.28-.29h.01Z"/>
      <path class="st1" d="M365.19,113.73l13.8-.92-13.76,1.49c-.16.02-.29-.1-.31-.25-.02-.15.1-.29.25-.31,0,0,0,0,.01,0Z"/>
      <path class="st1" d="M365.04,112.8l13.67-2.12-13.57,2.68c-.15.03-.3-.07-.33-.22-.03-.15.07-.3.22-.33,0,0,0,0,.01,0Z"/>
      <path class="st1" d="M364.82,111.89l13.43-3.31-13.29,3.85c-.15.04-.31-.04-.35-.19-.04-.15.04-.31.19-.35,0,0,0,0,.01,0Z"/>
      <path class="st1" d="M364.51,111.01l13.1-4.47-12.9,5c-.15.06-.31-.02-.37-.16-.06-.15.02-.31.16-.37,0,0,0,0,.01,0Z"/>
      <path class="st1" d="M364.13,110.15l12.66-5.59-12.42,6.1c-.14.07-.31.01-.38-.13-.07-.14-.01-.31.13-.38,0,0,0,0,.01,0Z"/>
      <path class="st1" d="M363.68,109.33l12.12-6.67-11.84,7.16c-.13.08-.31.04-.39-.1-.08-.13-.04-.31.1-.39,0,0,0,0,.01,0Z"/>
      <path class="st1" d="M363.15,108.56l11.49-7.7-11.17,8.17c-.13.09-.3.06-.39-.06-.09-.13-.06-.3.06-.39,0,0,0,0,0,0Z"/>
      <path class="st1" d="M362.57,107.83l10.78-8.68-10.42,9.11c-.12.1-.3.09-.4-.03-.1-.12-.09-.3.03-.4,0,0,0,0,0,0Z"/>
      <path class="st1" d="M361.91,107.16l9.98-9.58-9.58,9.98c-.11.11-.29.12-.4,0-.11-.11-.12-.29,0-.4,0,0,0,0,0,0Z"/>
      <path class="st1" d="M361.21,106.54l9.11-10.42-8.68,10.78c-.1.12-.28.14-.4.04-.12-.1-.14-.28-.04-.4,0,0,0,0,0,0Z"/>
      <path class="st1" d="M360.45,105.99l8.17-11.17-7.7,11.49c-.09.13-.26.16-.39.08-.13-.09-.16-.26-.08-.39,0,0,0,0,0,0Z"/>
      <path class="st1" d="M359.65,105.51l7.16-11.84-6.67,12.12c-.08.14-.25.19-.38.11-.14-.08-.19-.25-.11-.38,0,0,0,0,0,0Z"/>
      <path class="st1" d="M358.81,105.1l6.1-12.42-5.59,12.66c-.06.14-.23.21-.37.14-.14-.06-.21-.23-.14-.37,0,0,0,0,0-.01Z"/>
      <path class="st1" d="M357.93,104.76l5-12.9-4.47,13.1c-.05.15-.21.23-.36.18-.15-.05-.23-.21-.18-.36,0,0,0,0,0-.01Z"/>
      <path class="st1" d="M357.03,104.51l3.85-13.29-3.31,13.43c-.04.15-.19.24-.34.21-.15-.04-.24-.19-.21-.34,0,0,0,0,0-.01Z"/>
      <path class="st1" d="M356.11,104.33l2.68-13.57-2.12,13.67c-.02.15-.17.26-.32.24-.15-.02-.26-.17-.24-.32,0,0,0,0,0-.01Z"/>
      <path class="st1" d="M355.18,104.23l1.49-13.76-.92,13.8c-.01.16-.15.27-.3.26-.16-.01-.27-.14-.26-.3,0,0,0,0,0-.01Z"/>
    </g>
    <path class="st2" d="M529.05,258.38c1.76,0,2.89.97,2.89,2.32l-.02,14.82c0,.49-.3,1.75-.62,2.08-.4.42-1.49.61-2.38.6l-69.26-.45c-4.96-.03-10.48-3.67-13.57-6.93-5.61-5.9-6.78-13.87-6.74-21.68l.18-37.34c.02-3.54,1.58-7.39,2.98-10.59,5.48-12.52,19.93-13.27,31.87-13.25l40.39.08c11.44.02,18.6,6.54,19.25,17.95.55,9.7.34,19.17.17,28.95-.05,2.53-2.24,5.11-4.85,5.12l-70.3.02c-.29,5.29-.75,13.24,4.2,16.37,1.96,1.24,5.01,1.92,7.44,1.92h58.36ZM509.21,207.3l-40.33.11c-5.12.01-9.26,3.87-9.59,8.72-.21,3.1-.2,5.86-.14,9.03l55.74-.04c.76-5.76,2.22-17.84-5.68-17.82Z"/>
    <path class="st2" d="M705.06,209.58l-43.18-.06c-3.73,0-7.99,2.05-9.26,5.43-1.48,3.92-1.88,8.11-1.88,12.31l-.02,48.21c0,1.45-1.16,2.69-2.49,2.68l-14.93-.02c-1.2,0-2.42-1.39-2.42-2.72l.31-60.07c.06-11.52,6.4-24,18.36-25.84,3.18-.49,6.38-1.41,9.54-1.41h47.74c3.44,0,7.26.95,10.4,1.76,12.52,3.21,16.83,15.62,16.82,27.22l-.07,58.36c0,1.54-1.19,2.74-2.56,2.74h-14.37c-.76.01-2.24-1.24-2.24-2.2l-.05-52.57c0-1.59-.61-3.66-.79-5.39-.44-4.23-3.86-8.42-8.92-8.42Z"/>
    <path class="st0" d="M771.18,373.94c-.5-3.02-1.82-6.27-.6-8.96l8.98-19.86c2.35-5.2,7.54-27.77,6.66-32.92l-2.09-12.22c-.73-4.26-.5-7.7-3.47-11.05-2.03-2.29-3.12-5.36-3.08-8.57.08-6.27-6.32-1.91-4.83-15.91-3.05-2.62-6.99-4.92-8.54-9.02-1.86-4.91-5.89-1.29-9.82-3.3-2.78-1.42-1.5-9.42-5.77-14.79-1.18-1.48-3.96-3.33-3.5-5.45s1.61-4.61,2.65-6.51c2.23-4.05,1.6-7.95,2.09-12.38.76-6.84,2.65-13.6,4.62-20.24.86-2.89,2.65-5.37,4.04-8.19,1.8-3.64-4.42-7.26-4.18-11.84.43-8.5,9.8-9.78,2.79-18.55-5.67-7.09-2.09-8.57-1.51-10.46l4.47-14.57c.7-2.27,2.63-4.85,4.28-6.57,5.57-5.81,1.55-8.23,7.02-14.41,6.13-6.92-.88-10.93,6.5-19.25,5.38-6.06,2.94-16.61,5.29-25.14l-10.94-5.53c-4.8-2.43-7.05,3.49-12.63-1.33-4.07-3.52-12.79-5.61-18.25-2.2-6.4,4-9.26-4.24-12.6-4.29l-11.43-.17c-7.51-.11-3.94-10.03-9.3-6.52-.28,10.81-9.28,7.1-9.96,14.92-.48,5.58-4.21,5.51-9.62,15.51-2.23,4.13-13.56.91-15.44-5.79-5.91,1.58-5.66,5.92-10.52,5.94-3.65,0-2.51-6.07-5.91-10.56-.65-.87-3.48-.37-4.36.38-5.96,5.11-9.4,3.24-19.46,6.23-6.15,1.83-6.07-5.34-8.42-5.01-4.43,1.95-9.73,4.51-14.33,6.07-4.98,1.69-14.04-3.14-14.5-4.5-.26-.77,0-2.63.71-2.91,3.69-1.51,8.52,3.87,11.92,2.73,4.57-1.53,8.55-3.58,12.89-5.64,1.71-.81,5.25-2.04,6.69-.25l3.74,4.65c7.18-3.05,11.61-.79,16.67-4.7,3.2-2.47,6.55-3.37,10.37-1.64,3.16,1.43,4.76,4.98,5.28,9.31,3.53-3.54,7.14-5.96,11.78-4.34,3.16,1.11.63,6.02,8.88,6.73,2.04-3.19,3.59-6.21,6.03-8.74,1.61-1.67,2.92-3.12,3.09-5.46.28-3.86,2.59-6.55,5.99-8.06,5.81-2.57,2.12-7.15,4.5-9.32,2.17-1.98,7.49-1.68,10.3.06,1.38.85,2.11,3.62,2.77,5.84l12.39.32c4.56.12,6.95,6.83,10.85,4.26,6.52-4.3,17.65-.37,23.69,3.54,3.57.43,8.03-1.81,12.08,1.22,4.72,3.53,13.41,3.64,11.93,11.07-2.4,12.09.49,19.44-7.35,28.07-4.17,4.6,1.88,9.74-5.46,17.87-4.74,5.26-.29,7.25-6.7,13.99s-4.52,11.36-8.09,19.25c-1.27,2.82-1.38,4.06.75,6.54,2.28,2.65,4.3,6.46,3.59,10.22-1.37,7.28-8.33,9.31-3.99,14.02,6.78,7.33-.22,14.82-1.51,18.94-1.84,5.9-3.74,11.91-4.39,18.12-.7,6.68-.57,13.18-4.65,19.25,3.48,2.79,5.15,5.76,5.92,9.54l1.28,6.28,4.48.08c8.13.15,3.92,7.32,13.26,11.85,5.15,2.5,1.12,7.69,2.99,12.1,7.76,5.03,1.81,8.25,6.09,13.7,1.78,2.26,3.73,5,4.15,7.81l2.61,17.24c1.11,7.35-1.1,14.35-2.5,21.49-1.21,6.15-2.62,11.77-5.24,17.46l-7.3,15.89c-1.2,2.62-.42,4.82.2,7.7,1.05,4.89-.91,10.22-2,14.98-2.56,11.21-11.26,9.82-13.36,16.56-.51,1.64-.3,5.21-2.36,5.67-5.55,1.23-14.47,2.48-15.38-5.12-.95-.59-2.38-1.39-3.42-1.74-11.83-3.93-14.34-15.53-14.83-14.78l-.87,1.32c-1.05,1.6-1.7,5.17-3.47,6.04-4.7,2.32-8.93-.8-12.92-3.34-.96,2.3-1.71,4.89-2.97,6.81-1.61,2.46-14.46,1.56-18.51-1.06-2.09,2.31-4.64,4.79-7.52,6.16-3.31,1.58-17.32,6.73-17.58,1.49-.19-3.76,2.82-1.61,10.22-3.99,4.89-1.57,8.84-3.62,11.79-8.02,2.58-3.84,8.88,4.11,18.05,1.56l3.54-9.87c.56-1.55,3.54-.2,4.29.77,2.27,2.95,5.18,4.92,8.82,5.3l3.17-6.9c.64-1.4,3.66-2.38,5.02-2.22,6.03.71,2.4,12.22,16.85,16.62,3.13.95,4.82,3.26,5.97,6.36,1.75.85,4.68.56,6.75-.08,2.25-12.42,11.15-8.35,13.79-18.82,1.02-4.04,2.68-8.24,1.93-12.76Z"/>
    <path class="st2" d="M568.1,220.34l-.21,55.64c0,1.02-1.41,2.19-2.25,2.19l-15.27-.03c-.74,0-1.97-1.33-1.96-2.09l.23-61.46c.04-11.67,6.69-23.41,18.64-25.24,2.61-.4,5.52-1.27,8.02-1.27l42.86-.09c1.44,0,2.94,1.59,2.94,2.93v14.26c.01,1.1-1.3,3.36-2.47,3.36l-33.53.05c-4.09,0-8.34-.19-12.07,1.79-2.93,1.55-4.9,6.02-4.92,9.97Z"/>
    <g>
      <path class="st2" d="M81.14,230.59c-.03,6.13.53,11.74,2.43,17.38,1.35,4,5.91,6.98,10.73,7.01l63.17.38c.92,0,2.21.21,2.75.46s1.07,1.71,1.06,2.33l-.21,19.95-69,.06c-7.9,0-15-2.39-20.98-7.56-7.25-6.27-9.7-19.18-10.03-28.58-.49-14.15-.48-28.08,0-42.24.18-5.36,1.13-10.82,2.53-15.74,3.56-12.54,13.89-19.21,26.8-19.22l70.62-.05.27,19.58c.01,1.03-1.45,2.44-2.62,2.44h-64.09c-1.27,0-3.99,1.29-5.33,1.73-7.31,2.42-8.03,14.18-7.94,21.46h76.78c1.13.01,2.52,1.39,2.52,2.32l.05,15.58c0,1.09-1.06,2.59-2.31,2.6l-37.29.04-39.89.08Z"/>
      <path class="st2" d="M173.67,241.17c.71-11.7,8.8-15.02,18.78-15.93l56.16-.02c.43-4.6.22-12.24-4.13-14.67-3.29-1.83-7.18-2.08-10.94-2.08l-55.26-.07c-1.55,0-3.05-1.29-3.05-2.58l-.02-14.32c0-1.56,1.17-3.5,3.09-3.49l62.26.14c9.2.02,19.74,3.16,24.06,11.89,2.65,5.36,3.95,11.23,3.95,17.34l.03,52.26c0,3.4-2.03,8.38-5.97,8.38l-76.39-.03c-3.34,0-7.78-3.42-9.46-5.68-4.53-6.08-3.61-23.1-3.12-31.16ZM220.8,243.01c.47,1.35.87,2.8,1.36,3.53.87,1.29,5.45.37,4.89,1.83l-1.13,2.92,5.87,1.73-2.86,2.93c.82,1.35,2.22.95,4.12.42l-.24,3.68h12.75c1.59.01,3.16-1.96,3.15-3.49l-.05-15.96-48.37-.02c-2.3,0-5.3.57-6.56,2.49-1.6,2.45-1.22,5.61-1.43,8.5-.32,4.36,2.06,8.44,6.85,8.45h9.78s-.41-3.73-.41-3.73l2.66.82c.46.14,1.16-.59,1.63-1.34l-2.75-2.86,6.22-1.72-1.68-3.32,2.29-.45c.8-.16,2.74-.34,2.95-1.07l.95-3.36Z"/>
      <path class="st2" d="M373.84,240.83c.7,8.04,1.21,21.66-2.4,28.83-2.63,5.21-7.83,8.48-14,8.47l-76.18-.04-.2-16.86c-.01-.92,1.38-2.34,2.45-2.34l62.76-.03c2.32,0,5.82-.22,7.07-2.28,2.41-4,2.35-9.68.08-13.74-1.35-2.41-4.95-2.64-7.52-2.66l-48.21-.27c-7.64-.04-14.27-4.74-15.47-12.24-1.58-9.87-2.06-20.03,1.06-29.73,1.84-5.73,8.84-9.7,15.12-9.72l70.09-.24c1.57,0,2.56,1.55,2.55,2.98l-.13,15.2c0,.86-2.24,1.78-3.02,1.78l-59.89-.12c-2.39,0-4.76.04-6.23,2.06-2.5,3.44-2.32,8.76.22,12.16.62.82,3.05,2,4.08,2l48.7.22c10.86.05,18.09,5.39,19.06,16.56Z"/>
    </g>
    <g>
      <path class="st2" d="M357.51,117.48c4.67-.02,5.56,2.62,7.47,5.6,2.47,3.85,7.07,7.46,10.81,9.8,5.02.21,3.13.7,7.3,8.05.81,1.42.94,2.29,1.03,4.31l5.28-.19-.12-15.92c0-.57-1.24-1.67-1.3-2.12-.08-.57,1.25-1.72,1.27-2.39l.21-10.59c.1-5.12,6.64-8.23,11.01-10.43l5.28-2.66c2.24-1.13.78-12.46,2.82-15.96,2.56,3.68.56,13.78,2.37,15.31,2.02,1.71,7.94,4.33,11.4,6.21,10.03,5.44,3.05,11.64,7.09,20.58-1.94,3.29-1.28,13.68-1.27,18.09l28.32.15c.39,4.66.49,9.25-1.92,13.04-2.64,4.16-6.94,7.6-11.91,7.72l-8.12.19-.13,15.04c.52.57,1.43,1.55,1.52,2.12.1.68-1.09,1.72-1.51,2.39l.14,27.1c0,.83,1.93,2.54,1.47,2.91l-2.34,1.88c.02-.15.85,1.49.85,2.05l-.09,25.07c.62.66,1.46,1.6,1.59,2.19s-.92,1.67-1.63,2.32l.25,23.91c.01,1.15,3.17,3.46.89,4.84l-56.48.03c-2.35-1.73.92-3.81.98-5.31.28-7.15.26-16.51.04-23.09-.02-.57-1.31-1.85-1.62-2.27-.37-.5,1.62-1.85,1.63-2.58l.19-27.35-1.79-1.92c-.42-.45,1.64-1.87,1.65-2.7l.15-27.28-2.02-1.79c-.5-.44,1.71-1.93,1.76-2.72.24-3.67.23-10.33.19-14.9l-22.67-.08.2-6.29c.19-6.11,4.9-11.34,10.63-13.54,2.98-1.14,6.28-.85,9.96-1.32-.76-2.18-2.07-3.82-3.38-5.64l-3.29-4.59c-7.78,1.74-14.1.22-21.27,1.52l3.14,6.07c.19.37.28,1.48,0,1.72-.36.32-1.57.77-2.1.76l-17.27-.09c-4.04-4.87-10.67-1.07-17.13-.65-7.33.48-14.13.26-21.68.22,1.13-3.68,3.09-6.13,5.38-8.76l2.56-2.94c.41-2.23,3.55-15.47,4.65-16.15l10.22-6.29.67-8.47c.14-1.77.07-4.65-.12-6.23l-4.43-5.07c-4.03,3.6-6.71,2.91-9.44,6.98l-3.46,5.15-2.86,4.44-7.24,10.88c-6.28,9.43-3.85,7.45-16.52,13.31-6.84,3.16-8.84,7.41-13.14,13.2-1.62-.06-3.32-.11-4.58-.34l-11.98-2.2-3.98-.85c-2.65-.57-5.2-.23-7.63,1.14l-4.66,2.61-29.28.15c-1.04-2.57,1.21-3.3,2.71-4.44,2.77-2.1,5.85-4.62,8.22-6.8l-1.68-8.48,9.64-10.9,2.36-9.42c1.69-6.75.2-6.87,3.63-7.54.83-.16,1.71.45,3.55,1.43.09-.59.12-2.18.05-3.35l-.6-9.77-.63-10.27,6.29.98,8.66-14.11-16.31-8.08c-.7.76-1.66,2.17-2.34,3.03l-2.41,3.07-6.84,9.28-8.33,11.13-14.54,19.1-7.59,10.11-3.09,4.21,11.85,2.29,5.37,1.2c.53.12,1.48.64,1.79,1.02s-.48,1.66-.92,2.04c-2.28,1.99-4.64,4.23-6.85,6.65-7.04,7.7-5.98,1.8-13.78,5.2l-15.32,6.67-12.83,4.83c-.72.27-1.59.49-2.1.6s-.83-2.41-.45-2.8l6.86-7.07c1.77-1.82-1.38-5.36.08-10.38-7.33,5.3-14.84,9.98-22.33,13.96l-12.79,6.79-7.18.21c-.41.01-1.34-1.22-1.11-1.56s.78-1.09,1.15-1.38l9.78-7.59c7.63-5.91,15.18-11.86,21.39-19.54-.62-4.1-.8-7.47-.74-12.16-4.61.37-9.92.8-14.93,2.19-2.58,3.75-4.38,8.53-5.98,12.87l-1.86,5.02c-.33,2.3-10.27,6.29-12.68,7.24-3.38,1.33-4.89,2.45-6.83,5.72s-4.58,6.52-7.23,9.9l-28.82.03c-.4,0-1.39-.75-1.4-1.14,0-.52.54-1.75,1.05-1.84,9.57-1.65,3.47-4.46,7.8-6.12,2.27-.87,3.2-1.75,2.99-3.43-.34-2.7-1.97-2.65-4.44-2.9-5.28-8.88-.7-5.88-2.72-13.05-.76-2.7.54-3.46,2.41-4.71,4.81-3.22,7.77-1.24,7.84-1.01l.9,2.61c.79-1.26,4.1-2.61,4.87-.98,1.29,2.73-.3,5.21-2.36,7.24l6.79,6.14c.46.42.81,2.13.4,2.48-1.75,1.5-2.47-1.38-6.95-2.3.35,5.06.42,8.35-.74,12.88.72.76,2.48,2.22,3.42,2.91,7.12-4.92,5.47-1.56,9.13-7.97l2.67-4.68,5.52-8.99c2.51-4.09,5.1-7.75,8.31-11.24l11.51-12.51c1.68-1.83,3.29-2.57,5.55-3.71l4.03-2.04,1.73-11.24c.27-1.73,3.25-3.85,4.48-4.96l3.61-3.26,3.8-3.43c2.94,1.04,3.23,3.9,4.4,6.2,1.02,1.3,4.5,2.27,5.12,4.16l2.48,7.54c2.89,8.79.27,5.81,10.23,12.45,2.25,1.5,5.37,3.59,8.28,3.11,6.4-1.07,13.66-10.27,17.84-15.24,2.05-2.44,8.89-11.56,10.55-14.29l2.8-4.61,2.98-5.03c3.72-6.27,3.08-8.52,6.8-10.96l3.51-2.29,8.51-14.89c.33-.58.38-2.19.51-2.68.16-.61,2.19-.32,2.66.15l10.99,10.88c2.52,2.49,4.89,4.67,7.26,7.26,5.55,6.08,3.78,6.32,8.99,10.78,14.68,12.54,5.57,12.79,9.48,19.92.55,1,1.41,3.19,2.19,3.88,6.04,5.34,7.79,3.17,9.78,8.72,2.51,7.02,3.61,10.62,9.54,9.77,5.57-.8,9.9-4.41,10.7-10.37l6.8-4.66,5.11-3.46,6.57-4.45c2.21,2.56,3.94,4.81,6.22,6.7M392.9,128.38l-.11,16.99,3.75.02.11-16.99-3.75-.02ZM405.24,145.14l-.06-16.52h-4.18s-.02,16.6-.02,16.6l4.27-.08ZM416.23,128.41h-3.79s.03,16.97.03,16.97h3.79s-.03-16.97-.03-16.97ZM421.03,128.51l-.11,16.84,4.1.03.11-16.84-4.1-.03ZM76.64,141.73c.24-.59.33-2.26-.11-2.16-1.21.27-1.84.13-2.95,1.74-.28.42.56,1.76,1.06,1.68s1.81-.78,2-1.26ZM375.36,147.55v16.56s63.58.04,63.58.04v-16.56s-63.58-.04-63.58-.04ZM408.84,166.33c3.8,1.71,6.12,4.05,5.83,7.89-.26,3.46-3.16,6.33-6.98,6.5-4.09.19-7.48-2.51-7.91-6.57-.36-3.44,2.19-6.13,5.88-7.84l-11.9-.11.12,15.05,27.16-.02-.03-15.06-12.18.16ZM408.53,179.45c2.49-.91,4.6-3.31,4.48-4.94-.01-.2-1.24-.59-1.42-.68s-.03-.33.14-.44,1.16-.43,1.2-.63c.38-1.67-2.64-4.96-4.24-4.36-.24.09-1.06,1.19-1.16,1.43-.35.83-.75-1.56-1.17-1.58-1.75-.1-4.9,1.89-5,4.36l2.08,1.04c-.8.36-2.21.72-2.03,1.16l.87,2.04c.19.45,1.5,1.52,1.87,1.2l1.37-1.2-.77,1.5c-.18.35,1.36,1.27,1.58.93l1.07-1.68,1.13,1.84ZM393.71,185.46v27.62s27.34,0,27.34,0v-27.62s-27.34,0-27.34,0ZM421.07,217.35h-27.35v27.54h27.35v-27.54ZM421.08,249.23h-27.37v23.8h27.37v-23.8Z"/>
      <g>
        <path class="st0" d="M46.48,157.09c-.36-.74-2.44-.68-3.57-.41l-.77-2.42-.65,2.3c-.15.54-1.85-.27-2.82-.34l-.11,15.29c-.04,5.28,1.14,10.42-.65,15.77l-1.19-34.28-.73,26.14c-.07,2.53-.34,4.99-.62,7.66l-.74-16.58-.4-17.79-.59,13.99c-.3,6.97.13,13.66-.94,20.85-1.66-9.54.43-19.77-1.71-29.97l-.26,23.32c-.01,1.3-.56,3.42-.9,4.92l-.67-18.38-.43-12.92-.44,11.7-.66,17.13c-.1.08-1.01-1.04-1.02-1.59l-.2-25.89c-1.95,8.83.04,17.38-1.76,25.56-.93-6.04-.41-11.54-.82-17.27l-.68-9.66c-.5,8.24.09,15.82-1.12,24.08-.87-3.83-.84-7.65-.9-11.76l-.22-14.14c-1.72,7.96.49,15.43-1.65,23.47l-.09-52.85,12.16-10.79,22.43-.05,12.68,11.41.1,12.57-19.7.07-.16-9.66h-8.3s.05,15.83.05,15.83l16.84.11,11.07,9.39-.35,22.64c-.01.7-.87,2.12-1.31,2.44l-1.05-23.96c-.91,9.23.34,17.88-1.33,27.07l-1.17-28.26-.89,25.72c-.06,1.78.44,3.62-1.17,5.03l-.1-17.26c-.02-2.89-.05-5.53-1.02-8.09-.52,9.35.45,17.95-1.15,27.15l-.6-14.41-.6-15.1c-.48,10.72-.1,21.29-1.22,31.73-1.17-11.28-.74-21.34-1.13-31.75l-.79,9.43c-.64,7.63.47,15.07-.81,22.97-1.35-7.71-.17-14.98-.8-22.47l-.83-9.92-.5,24.59c-.05,2.36-.35,4.79-.78,7.34l-.95-34.38-.9,17.2-.41-12.51ZM32.49,137.41c.52.14,2.12.36,2.24-.23l.49-2.5c.16-.83-.13-3.21-.89-3.55-.65-.29-1.83-.23-2.95-.19l-1.4-3.08-2.38,9.4c.85.15,1.72.34,1.84-.06l.64-2.18c.21-.7.64-1.8.91-2.29s2-.12,2.41.18l-.9,4.51ZM26.03,137.18c-.82-1.22-1.4-2.35-1.27-3.33.1-.77,1.51-1.45,2.48-2.07l-2.55-2.58-2.24,2.36c1.45,2.26-.37,6.14,1.22,5.93.72-.09,2.41-.32,2.36-.31ZM40.1,154.92c0-.21-.17-.39-.39-.39s-.39.17-.39.39.17.39.39.39.39-.17.39-.39Z"/>
        <path class="st0" d="M46.61,186.66c-1.45,1.75-1.59-15.73-.29-14.59.62,5.26.48,9.57.29,14.59Z"/>
        <path class="st0" d="M43.41,186.92c-.48-4.89-.67-9.6.21-14.82,1.12,5.09,1.21,9.87-.21,14.82Z"/>
        <path class="st0" d="M41.04,186.83l-.53-4.34c-.4-3.25-1.45-6.8.53-10.11.27,4.91.27,9.34,0,14.45Z"/>
      </g>
    </g>
    <path class="st5" d="M515.02,137.33c3.92-4.36-1.5-9.17,4.81-10.57.62-.14,1.69-.75,1.96-1.29s.29-2.22.07-2.82l-9.91-26.71c-1.17-3.15-5.7-15.67-8.33-16.37-4.78-1.39-9.26-2.28-11.37-7.54,2.39-1.77,5.4-2.56,8.38-2.91l11.74-1.36c-7.55-1.97-12.03,1.03-20.45.32,4.78-3.58,9.85-4.24,15.47-4.59,11.74-.74,22.48,1.62,33.17,7.12-8.26-7.66-24.39-9.32-35-8.19l-12.96,1.38c1.7-2.04,3.8-2.66,6.19-3.28,5.33-2.26,10.77-2.82,16.56-2.99,11.46-.33,21.52,3.12,31.27,9.5-5.99-6.45-14.28-9.35-22.7-10.16-13.42-1.29-10.85,1-23.47.08,7.77-4.7,25.56-4.08,34.33-2.23,7.72,1.63,14.37,5.66,20.35,10.86,4.74,4.12,8.48,9.36,11.51,14.87,8.62,15.66,12.26,34.96,8.08,52.33-1.13,4.7-4.29,13.04-9.16,14.14-2.02.45-4.71-.35-6.06-1.85-2.01-2.22-2.4-4.65-2.81-7.85-7.07-2.64-16.65-4.08-23.76-4.56-2.43-.16,1.76,8.16-2.84,8.02-1.63-.05-4.36-.34-5.66-.15-.91,2.18-1.3,4.61-3,5.78-2.97,2.06-7.4,2.57-10.58.68-2.08-1.23-2.76-3.45-4.85-5.91-1.81,1.91-2.6,6.64-3.96,6.52-.49-.04-1.78-.35-2.01-.43l5.44-9.06c1.58-2.63,5.67,1.36,7.59.92.6-.14,1.18-.89,1.93-1.71ZM523.18,98.91l.03-14.96c0-1.94-1.57-3.18-3.32-3.33l-11.17-.98c-1.27,1.61-.28,3.66.37,5.28l13.27,33,.82-19.01ZM537.14,123.79l14.97-15.28c-3.19-11.2-7.13-18.41-17.87-23.28l-8.05-3.65c-1.06,2.65-1.18,4.23-1.23,6.69l-.33,16.46-.02,18.43c1.41,2.44,3.64,4.6,6.19,7l6.33-6.38ZM556.23,134.02c-.17-8.48-1.62-14.53-3.56-21.92-1.33.81-2.39,1.4-3.21,2.24l-16.09,16.31,22.87,3.37ZM528.74,131.15l-4.5-4.17-2.05,8.52,6.55-4.35ZM530.46,136.14c-.39-1.3-.91-2.47-1.25-2.91l-5.21,4.27c1.12.72,2.64,1.35,3.79,1.38,1,.03,2.95-1.8,2.67-2.74Z"/>
    <g>
      <path class="st0" d="M421.79,333.23l.39-5.84-9.04,25.07-8.96-.09-9.11-25.11.61,9.95.05,30.75-10.22-.02.03-60.42,11.39-.07,11.74,33.34,11.7-32.84c3.66-.64,7.38-.7,11.72-.37l-.05,60.14c-3.56.29-6.68.32-10.47.18l.21-34.66Z"/>
      <path class="st0" d="M609.53,367.91c-5.32,1.21-10.64,1.29-15.7-.84-3.83-1.61-7.03-5.93-7.07-10.32l-.32-37.55c.99-7,5.63-11.7,12.53-12.24,2.97-.23,5.83-.3,8.9.16,6.11.91,11.41,5.75,11.39,12.41l-.11,36.93c-.02,5.75-4.51,10.28-9.63,11.45ZM603.07,359.29c3.59.06,5.64-1.87,5.64-5.01l-.03-32.82c0-3.34-2.66-5.29-5.9-5.12-2.03.11-5.45,1.05-5.45,3.72v35.52c-.01,2.76,3.4,3.67,5.74,3.71Z"/>
      <path class="st0" d="M684.01,328.98c6.63-.07,12.26,4.31,12.8,11.02.43,5.3.33,10.93,0,16.23-.41,6.62-4.89,11.21-11.22,12.02-5.85.75-11.8.85-16.83-2.86-2.21-1.63-4.3-5.55-4.33-8.67l-.3-34.65c-.06-6.86,3.98-12.78,10.93-14.22,6.35-1.31,12.82-.9,19.33.7l.08,10.06c-4.47-1.07-19.56-4.67-19.53,3.86l.03,7.24c3.07-.44,5.53-.7,9.04-.74ZM679.84,359.43c2.55.16,6.04-.71,6.25-3.56.32-4.49.28-8.88.15-13.48-.05-1.87-1.75-3.92-3.57-4.13-2.72-.31-4.96.04-7.69.86-.16,5.79-.25,10.88-.03,16.47.1,2.42,2.45,3.68,4.88,3.83Z"/>
      <path class="st0" d="M579.04,367.89l-30.38.07v-15.5c-.01-3.87,1.8-7.78,4.75-10.21l12.1-9.95c4.71-3.87,3.8-13.52.61-14.5-5.61-1.72-10.85-.56-16.46,1.17l.05-10.26c9.99-2.6,28.06-3.86,29.56,9.81.96,8.68.66,15.25-5.86,20.58l-11.74,9.6c-2.74,2.24-2.31,6.37-2.03,9.71l19.21.11.16,9.37Z"/>
      <path class="st0" d="M656.83,367.91h-30.35s.03-15.47.03-15.47c0-3.4,1.52-7.19,4.02-9.5,3.68-3.4,7.43-6.47,11.34-9.45,3.36-2.56,4.94-5.33,4.52-9.88-.17-1.91-.13-5.19-2.54-5.88-5.57-1.6-10.87-.52-16.46,1.17l.02-10.28c9.8-2.48,28.3-3.66,29.61,9.89.68,7.01.83,15.08-4.84,19.72l-12.46,10.21c-2.88,2.36-2.68,6.84-2.22,10.04l19.33-.04v9.47Z"/>
      <path class="st0" d="M294.78,316.99c4.01-.35,7.16-.51,10.69-.1l-10.83,50.95-13.21.06-11.03-50.86c3.85-.54,6.89-.49,10.86-.11l4.35,23.69,2.46,16.94,3.13-21.09,3.57-19.49Z"/>
      <polygon class="st0" points="192.94 367.92 182.04 367.88 182.02 317.03 170.95 316.92 170.94 307.52 204.06 307.4 204.07 316.93 192.98 317.01 192.94 367.92"/>
      <rect class="st0" x="322.27" y="330.08" width="65.05" height="10.81" transform="translate(19.15 690.14) rotate(-89.97)"/>
      <path class="st0" d="M220.09,367.86l-10.7.21v-51.13s10-.19,10-.19l.68,3.23c3.07-2.72,6.83-4.1,11.27-3.32l.07,9.47c-4.23.07-7.73.66-11.3,2.82l-.02,38.92Z"/>
      <g>
        <path class="st0" d="M527.42,357.84l.34,9.62c-3.93.86-7.43,1.28-11.39.71-4.74-.69-8.88-4.61-8.9-9.76l-.13-32.4-4.84-.5-.37-8.69,5.72-.51,2.99-8.75,7.09-.15.15,9,9.05.32.02,9-9.04.03.14,30.82c1.12,2.97,5.34,2.66,9.17,1.25Z"/>
        <path class="st0" d="M501.66,326.22c-3.88-.02-8.23.49-11.14,2.96l-.08,38.76-10.72-.04.09-50.97,9.84-.27.78,3.31c2.93-2.74,7.29-4.13,11.19-3.24l.02,9.5Z"/>
      </g>
      <path class="st0" d="M330.95,312.25c-.91.24-2.41.9-2.85.5l-2.06-1.85c-6.84,4.43-6.93-1.46-13.69-4.77,3.09-1.96,7.81-3.3,10.87-.61,1.63,1.43,2.73,3.56,4.6,5.68,1.5-6.29.43-12.22-1.92-17.51.8,4.48,1.5,8.4,1.79,13.02-10.54-3.11-2.43-11.99-6.29-20.38,3.41,1.37,5.82,3.68,7.75,6.53,5.18,7.67-.63,11.82.2,18.59,2.1-1.01,3.32-1.88,4.6-3.34l-3.7,2.25c-.29-1.11.27-3.32,1.26-3.9l5.25-3.08c1.13,4.39-1.59,7.74-5.82,8.86ZM322.72,308.24l-3.74-1.71c.72,1.33,2.15,1.84,3.74,1.71Z"/>
      <path class="st0" d="M320.41,353.84c-.19,7.3,14.84,4.52,19.6,3.36l-.03,9.5c-6.83,1.56-13.23,1.96-19.77.63s-10.22-6.4-10.22-12.78v-26.24c.02-5.94,3.99-11.05,9.82-12.19,3.78-.74,7.83-.7,11.61-.01,5.99,1.08,9.97,6.24,9.94,12.33l-.11,18.01-20.64.05-.2,7.35ZM331.19,337.89c.02-3.84.14-7.14-.39-10.8-.27-1.86-3.36-2.63-4.81-2.66s-4.63.77-4.97,2.41c-.8,3.88-.59,7.44-.47,11.1l10.63-.05Z"/>
      <path class="st0" d="M233.89,358.86c-.21-3.58-.22-7.2.24-10.6,1.09-8.11,14.36-9.68,20.8-11.6.18-3.4,1.05-9.94-3.52-10.69-5.34-.87-9.74-.03-15.18,1.43l.04-9.88c6.57-1.27,12.34-1.58,18.79-.81,5.88.71,10.27,5.76,10.28,11.96l.07,39.18-9.73.21-.83-3.6c-2.46,3.17-6.47,3.74-10.48,3.68-5.56-.08-10.1-3.13-10.47-9.29ZM254.6,357.59c.99-4.14.13-7.99.09-11.87-3.13.9-6.83,1.09-9.11,3.21s-2.34,7.56-.25,9.92c1.93,2.19,8.6,1.5,9.27-1.26Z"/>
      <path class="st0" d="M441.33,364.32c-2.43-3.29-1.93-7.44-2.15-11.22-.77-13.25,11.68-13.44,21.24-16.45.32-3.75,1.03-10.22-3.93-10.79-5.24-.6-9.43.06-14.7,1.54l-.02-9.89c6.62-1.21,12.39-1.68,18.8-.8,5.89.81,10.29,5.75,10.3,11.97l.07,39.25-10.05.09-.36-3.66c-3.54,5.04-15.29,5.26-19.21-.04ZM460.62,357.92l-.11-12.27c-3.27.97-6.95,1.15-9.38,3.28-2.29,2.01-2.32,7.78-.25,9.82,2.69,2.67,7.3,1.13,9.74-.83Z"/>
      <path class="st6" d="M116.5,323.83c6.93,2,13.87,3.6,19.61,8.42,9.82,8.23,10.27,20.1,7.54,32.42l-26.51-.16c6.68-5.19,11.28-11.82,8.54-19.65-2.46-7.01-8.66-12.27-15.21-15.64-9.21-4.74-15.84-4.89-23.67-9.67,7.78.8,14.04,3.84,22.06,2.5l-14.68-4.34,2.78-2,10.29,2.15-.52-5.95c-.1-1.14,3.13-1.84,4.07-.89l-1.64,1.91c.45.26,1.53.59,1.62,1.05l.53,2.54,1.14-3.58,4.96,2.14,1.67-2.9,1.94,2.1c2.2,1.52,4.36,3.12,5.97,4.88-1.15,1.51-2.34.46-3.44-.63-.33.2-.32,2.98.55,3.07,25.55,2.53,42.04,16.73,45.45,42.88l-11.41.02c.27-14.63-2.89-29.34-16.29-36.11-7.42-3.75-16.27-5.6-25.35-4.55ZM115.95,316.57c.07.38.23,1.12.42.89l.69-.8c.13-.15-1.15-.28-1.12-.09ZM120.81,316.63c-.35.06.41,1.12.76,1.07.23-.03,1.13-.14.98-.32l-.58-.72c-.15-.18-.83-.08-1.15-.03ZM112.59,323.45c0-.21-.17-.39-.39-.39s-.39.17-.39.39.17.39.39.39.39-.17.39-.39Z"/>
    </g>
    <g>
      <path class="st2" d="M395.9,221.61l22.81.02-.02,19.18-22.81-.02.02-19.18ZM406.17,230.02l-.02-5.87-7.89.03.08,5.99,7.83-.15ZM416.27,224.11h-7.94s0,6.06,0,6.06h7.94s0-6.06,0-6.06ZM406.06,238.54l-.03-6.04-7.84.12.28,5.61,7.59.31ZM416.23,238.45l.03-5.91h-7.94s.18,5.81.18,5.81l7.73.09Z"/>
      <path class="st2" d="M377.63,149.45h59.34s0,12.85,0,12.85h-59.34s0-12.85,0-12.85ZM433.28,152.61l-51.88.02v6.53s51.89-.02,51.89-.02v-6.53Z"/>
      <path class="st2" d="M418.67,209.18l-22.61-.13-.09-19.24,22.73-.05-.02,19.42ZM406.16,198.24l.05-6.21-7.75.15-.3,6.12,8.01-.06ZM408.34,192.13v6.2s7.94,0,7.94,0v-6.2s-7.94,0-7.94,0ZM398.2,200.71l-.02,5.86,8.13.03.02-5.86-8.13-.03ZM416.3,206.49l-.05-5.75h-7.89s0,5.7,0,5.7l7.93.05Z"/>
      <path class="st2" d="M418.71,270.93l-22.74.12v-19.29s22.73.01,22.73.01l.02,19.16ZM406.17,260.11l.09-5.78h-7.97s.03,5.81.03,5.81l7.85-.03ZM416.27,254.26l-7.95.03.02,5.89,7.95-.03-.02-5.89ZM406.18,268.57l-.1-6.04h-7.9s.28,6.15.28,6.15l7.72-.11ZM416.26,262.52l-7.93.02v6.15s7.94-.02,7.94-.02v-6.15Z"/>
      <path class="st2" d="M408.64,173.41c.75.54,2.66,1.6,3.39,2.03-1.82.54-4.44-.73-4.86-2.01-.08-.24-.14-1.45-.14-1.7s.69-.3.94-.32c.36-.04.35,1.77.67,2Z"/>
      <circle class="st2" cx="403.4" cy="175.71" r=".68"/>
      <circle class="st2" cx="404.93" cy="170.21" r=".39"/>
      <circle class="st2" cx="411.35" cy="171.74" r=".39"/>
    </g>
  </g>
  <path class="st3" d="M440.83,73.63c6.43,2.43,11.3,7.26,17.65,9.1l6.34,1.84c3.54,1.03,6.19,3.21,8.55,5.95s5.49,4.64,9.17,5.01l5.85.59c1.23.12,2.35.28,3.41.79-1.01.13-1.85.15-2.8.33l-9.21,1.75c-4.71.9-9.31.8-14.01-.06-2.16-.4-4.18-.72-6.42-.76,4.03,4.33,5.33,8.01,11.24,10.27l5.57,2.13c6.41,2.45,5.84,9.31,10.57,13.14-7.17.22-10.54-3.19-18.59-2.41l-6.7.65c-4.93.48-9.71.73-14.68.49-2.05-.1-3.96-.25-5.96-.15M459.52,93.1c1.34-1.15,2.28-2.67,2.26-4.46-1.15,1.66-2.37,3.13-4.33,3.51-.08-.9.83-.69,1.04-1.33-.63-.1-1.15.21-1.65-.26.35-.36.86-.83.42-.93-.45-.02-.89.27-1.11.1-.28-.22-.32-.53-.4-.98l-1.51.47c-.13-.36-.33-.99-.65-.83-.38.19-.54.66-.96.63-.3-.03-.63-.52-1.01-.5-.3.04-.34.66-.59.72-.43.09-.86,0-1.32-.2-.04.41.13.72.02,1.24-.55-.07-.97-.23-1.42-.07l.7.98c-.6.27-.97.21-1.53.39.33.37.7.46,1.27.77-.98,1.38-3.79-1.72-4.38-2.81-.01,1.93,1.05,3.64,2.87,4.74,3.67,2.21,9.11,1.54,12.27-1.18ZM452.4,116.33l1.53-2.56c.97.7,1.65,1.46,2.68,1.76-.02-.96-.33-1.83-.16-2.86,1.15.22,2.2.43,3.29.43l-1.86-2.39,3.1-1.14c-1.01-.42-1.98-.75-3.05-1.47l2.04-2.24-3.28-.16c.32-1.03.57-1.95.58-2.97l-2.74,1.51-1.41-2.8c-.58.9-.82,1.75-1.51,2.56l-2.94-1.42.25,2.84c-1.29-.23-2.39-.16-3.66-.12.71.67,1.4,1.26,2.08,2.2l-3.33,1.31c1.15.38,2.13.62,3.3,1.18l-2.08,2.37,3.56-.22c-.16,1.11-.51,1.94-.44,2.89l2.78-1.44,1.26,2.73Z"/>
  <path class="st4" d="M440.77,73.62c6.43,2.43,11.3,7.26,17.65,9.1l6.34,1.84c3.54,1.03,6.19,3.21,8.55,5.95s5.49,4.64,9.17,5.01l5.85.59c1.23.12,2.35.28,3.41.79-1.01.13-1.85.15-2.8.33l-9.21,1.75c-4.71.9-9.31.8-14.01-.06-2.16-.4-4.18-.72-6.42-.76,4.03,4.33,5.33,8.01,11.24,10.27l5.57,2.13c6.41,2.45,5.84,9.31,10.57,13.14-7.17.22-10.54-3.19-18.59-2.41l-6.7.65c-4.93.48-9.71.73-14.68.49-2.05-.1-3.96-.25-5.96-.15l-.79-48.75"/>
</svg>